<svg width="25" height="25" viewBox="0 0 25 25" fill="none" xmlns="http://www.w3.org/2000/svg">
<path d="M11.9126 14.995C10.9501 14.8937 10.0839 14.655 9.34137 14.07C9.24887 13.9975 9.15387 13.9275 9.07012 13.845C8.74512 13.5325 8.71137 13.1712 8.97012 12.8012C9.18887 12.4837 9.55762 12.3987 9.94262 12.58C10.0168 12.6166 10.0879 12.6592 10.1551 12.7075C11.5389 13.665 13.4401 13.6912 14.8301 12.75C14.9676 12.6437 15.1139 12.5575 15.2839 12.5125C15.4376 12.4675 15.602 12.4756 15.7505 12.5354C15.8991 12.5953 16.0231 12.7035 16.1026 12.8425C16.3064 13.1762 16.3026 13.5012 16.0526 13.76C15.6692 14.15 15.2056 14.452 14.6939 14.645C14.2089 14.835 13.6764 14.93 13.1501 14.9937C13.2301 15.0812 13.2676 15.1237 13.3176 15.1737C14.0314 15.8962 14.7489 16.6162 15.4614 17.3412C15.7039 17.5887 15.7551 17.895 15.6214 18.1825C15.4751 18.495 15.1476 18.7025 14.8276 18.68C14.6334 18.6604 14.4538 18.568 14.3251 18.4212C13.7864 17.875 13.2376 17.3387 12.7089 16.7825C12.5551 16.62 12.4801 16.6512 12.3451 16.7912C11.8026 17.3537 11.2514 17.9075 10.6964 18.4587C10.4476 18.705 10.1514 18.75 9.86262 18.6087C9.7147 18.539 9.59003 18.4281 9.50356 18.2893C9.4171 18.1505 9.3725 17.9897 9.37512 17.8262C9.38637 17.6125 9.49012 17.4475 9.63762 17.3012L11.7551 15.165C11.8014 15.1175 11.8451 15.0675 11.9126 14.995Z" fill="#D2B589"/>
<path d="M12.485 12.5C11.6594 12.4927 10.87 12.1594 10.2891 11.5726C9.70819 10.9858 9.38277 10.1932 9.38379 9.36751C9.38776 8.53823 9.7204 7.74437 10.3088 7.15998C10.8972 6.57558 11.6933 6.24834 12.5225 6.25001C12.935 6.25229 13.343 6.3361 13.7229 6.49663C14.1029 6.65715 14.4473 6.89123 14.7365 7.18538C15.0256 7.47952 15.2538 7.82795 15.4078 8.21059C15.5618 8.59324 15.6386 9.00256 15.6338 9.41501C15.625 11.1225 14.2125 12.5063 12.485 12.5ZM14.04 9.37251C14.0405 9.17162 14.0013 8.97262 13.9245 8.78698C13.8478 8.60134 13.735 8.43272 13.5928 8.29085C13.4506 8.14897 13.2817 8.03665 13.0958 7.96034C12.91 7.88404 12.7109 7.84527 12.51 7.84626C12.3076 7.84525 12.1069 7.88457 11.9198 7.96193C11.7327 8.03929 11.5628 8.15315 11.4202 8.29685C11.2775 8.44055 11.1649 8.61122 11.0889 8.79891C11.0129 8.9866 10.975 9.18754 10.9775 9.39001C10.9785 9.5909 11.0192 9.78961 11.0974 9.9747C11.1755 10.1598 11.2895 10.3276 11.4327 10.4684C11.576 10.6092 11.7457 10.7203 11.9321 10.7952C12.1185 10.8702 12.3179 10.9075 12.5188 10.905C12.7196 10.9052 12.9184 10.8656 13.1038 10.7885C13.2891 10.7114 13.4574 10.5983 13.5988 10.4558C13.7403 10.3134 13.8521 10.1443 13.9278 9.95831C14.0036 9.77237 14.0417 9.57327 14.04 9.37251Z" fill="#D2B589"/>
<path d="M5 2.5C4.33696 2.5 3.70107 2.76339 3.23223 3.23223C2.76339 3.70107 2.5 4.33696 2.5 5V20C2.5 20.663 2.76339 21.2989 3.23223 21.7678C3.70107 22.2366 4.33696 22.5 5 22.5H20C20.663 22.5 21.2989 22.2366 21.7678 21.7678C22.2366 21.2989 22.5 20.663 22.5 20V5C22.5 4.33696 22.2366 3.70107 21.7678 3.23223C21.2989 2.76339 20.663 2.5 20 2.5H5ZM5 0H20C21.3261 0 22.5979 0.526784 23.5355 1.46447C24.4732 2.40215 25 3.67392 25 5V20C25 21.3261 24.4732 22.5979 23.5355 23.5355C22.5979 24.4732 21.3261 25 20 25H5C3.67392 25 2.40215 24.4732 1.46447 23.5355C0.526784 22.5979 0 21.3261 0 20V5C0 3.67392 0.526784 2.40215 1.46447 1.46447C2.40215 0.526784 3.67392 0 5 0Z" fill="#D2B589"/>
</svg>
