<svg width="25" height="22" viewBox="0 0 25 22" fill="none" xmlns="http://www.w3.org/2000/svg">
<path d="M24.3576 0.435272C24.1031 0.221785 23.7934 0.0800079 23.4619 0.025294C23.1304 -0.02942 22.7899 0.0050143 22.4771 0.124868L1.17167 8.25681C0.800309 8.39855 0.486174 8.65331 0.276269 8.98297C0.0663638 9.31263 -0.0280256 9.69946 0.0072245 10.0856C0.0424746 10.4717 0.205469 10.8364 0.471818 11.125C0.738167 11.4136 1.09355 11.6107 1.48479 11.6867L6.89653 12.7383V19.3055C6.89622 19.6605 7.00436 20.0077 7.20726 20.303C7.41017 20.5983 7.6987 20.8285 8.03634 20.9643C8.37397 21.1002 8.74551 21.1357 9.1039 21.0663C9.4623 20.9968 9.79143 20.8257 10.0496 20.5744L13.0445 17.6647L17.5901 21.551C17.9248 21.8398 18.3567 21.9995 18.8042 22C18.9988 21.9998 19.1921 21.97 19.3772 21.9117C19.6825 21.8177 19.957 21.6475 20.1735 21.4181C20.3899 21.1888 20.5406 20.9083 20.6107 20.6047L24.9528 2.19605C25.0284 1.87773 25.0129 1.54538 24.908 1.235C24.8031 0.924628 24.6128 0.648063 24.3576 0.435272ZM7.60603 11.0461L1.84723 9.92707L17.9722 3.77241L7.60603 11.0461ZM8.74358 19.3046V13.9875L11.655 16.4767L8.74358 19.3046ZM18.8103 20.2038L9.29886 12.0718L22.9953 2.46139L18.8103 20.2038Z" fill="#D2B589"/>
</svg>
