<svg width="25" height="25" viewBox="0 0 25 25" fill="none" xmlns="http://www.w3.org/2000/svg">
<path d="M7.40345 5.18705C7.16281 5.1547 6.91738 5.19915 6.70801 5.31299H6.69016C6.20408 5.57514 5.7662 5.90648 5.39279 6.29468C5.08248 6.62479 4.91415 6.9588 4.86994 7.2803C4.84358 7.47194 4.86143 7.66359 4.9235 7.84663L4.9456 7.85914C5.29502 8.80408 5.75157 9.71302 6.30928 10.5688C7.02769 11.771 7.91182 12.8829 8.93972 13.8769L8.97032 13.9175L9.01878 13.9504L9.04938 13.9832L9.08508 14.0114C10.1693 14.9599 11.3806 15.7772 12.6898 16.4433C14.1861 17.1927 15.0942 17.547 15.639 17.6941V17.7019C15.7989 17.7466 15.9443 17.7668 16.0905 17.7668C16.555 17.7355 16.9947 17.5621 17.3394 17.2741C17.7594 16.9304 18.1155 16.5259 18.3937 16.0765V16.0686C18.6546 15.6165 18.5662 15.1886 18.1896 14.8992C17.4353 14.2926 16.6197 13.7538 15.7538 13.2902C15.174 13.0008 14.5849 13.176 14.346 13.4693L13.8367 14.0598C13.5757 14.3532 13.1013 14.3125 13.1013 14.3125L13.0877 14.3204C9.55013 13.4889 8.60645 10.1933 8.60645 10.1933C8.60645 10.1933 8.56223 9.74514 8.88955 9.51669L9.52717 9.04422C9.83239 8.81582 10.0449 8.27451 9.71761 7.74024C9.21721 6.9425 8.63289 6.19187 7.97307 5.49916C7.82881 5.33585 7.62644 5.22475 7.40175 5.18549L7.40345 5.18705Z" fill="#D2B589"/>
<path d="M13.3814 3.75464C13.0237 3.75464 12.7336 4.02147 12.7336 4.35062C12.7336 4.67977 13.0237 4.94661 13.3814 4.94661C15.0196 4.94661 16.3807 5.43927 17.4561 6.38263C18.0097 6.89923 18.4406 7.51071 18.7235 8.17987C19.0075 8.85154 19.1366 9.56776 19.1035 10.2852C19.0883 10.614 19.3657 10.8919 19.7231 10.9059C20.0806 10.9199 20.3827 10.6646 20.3978 10.3357C20.4386 9.45321 20.2795 8.57263 19.9308 7.74773C19.582 6.92287 19.0513 6.1712 18.371 5.5384L18.3581 5.52694C17.0237 4.35282 15.3323 3.75464 13.3814 3.75464Z" fill="#D2B589"/>
<path d="M13.3374 5.7146C12.9798 5.7146 12.6897 5.98143 12.6897 6.31058C12.6897 6.63973 12.9798 6.90657 13.3374 6.90657H13.3586C14.5407 6.98321 15.4008 7.34574 16.0038 7.94081C16.6212 8.55368 16.9409 9.3149 16.9172 10.2568C16.9089 10.5858 17.1922 10.8588 17.5498 10.8664C17.9075 10.874 18.2041 10.6134 18.2124 10.2843C18.2435 9.04769 17.8112 7.98131 16.9533 7.12985L16.9521 7.12873C16.0756 6.26326 14.873 5.80542 13.4242 5.71593L13.4026 5.7146H13.3374Z" fill="#D2B589"/>
<path d="M13.3129 7.71056C12.9556 7.69326 12.6508 7.94569 12.632 8.27439C12.6132 8.60309 12.8876 8.88357 13.2448 8.90088C13.7872 8.92715 14.1328 9.07681 14.3502 9.27878C14.5687 9.48162 14.7319 9.80643 14.7617 10.3156C14.781 10.6444 15.0861 10.8965 15.4434 10.8787C15.8005 10.8611 16.0745 10.5804 16.0554 10.2516C16.0135 9.53642 15.7702 8.90412 15.2708 8.44005C14.7704 7.97511 14.087 7.74804 13.3129 7.71056Z" fill="#D2B589"/>
<path fill-rule="evenodd" clip-rule="evenodd" d="M6.24007 0.635885C10.3624 -0.211962 14.6375 -0.211962 18.7599 0.635885L19.1992 0.726213C21.6565 1.2316 23.5958 2.96569 24.2152 5.21122C25.2616 9.00506 25.2616 12.9793 24.2152 16.7731C23.5958 19.0187 21.6563 20.7528 19.1992 21.2582L18.7599 21.3485C16.1704 21.8811 13.5207 22.0791 10.8865 21.9426L7.44925 24.7722C7.18532 24.9895 6.8138 25.0574 6.47962 24.9496C6.14545 24.8417 5.90156 24.5751 5.84308 24.2536L5.2746 21.1291C3.06915 20.4985 1.35923 18.8558 0.784801 16.7731C-0.2616 12.9793 -0.2616 9.00506 0.784801 5.21122C1.40414 2.96569 3.34358 1.2316 5.80086 0.726213L6.24007 0.635885ZM18.336 2.38077C14.4928 1.59035 10.5073 1.59035 6.66398 2.38077L6.22477 2.47111C4.48255 2.82942 3.10746 4.05892 2.66834 5.65101C1.70155 9.15624 1.70155 12.8281 2.66834 16.3333C3.10746 17.9254 4.48253 19.1549 6.22477 19.5132L6.3408 19.5371C6.72671 19.6165 7.02184 19.9031 7.08713 20.2619L7.46836 22.3574L9.89402 20.3605C10.0899 20.1992 10.3483 20.1178 10.6105 20.135C13.1931 20.3032 15.7956 20.126 18.336 19.6036L18.7752 19.5132C20.5175 19.1549 21.8925 17.9254 22.3317 16.3333C23.2984 12.8281 23.2984 9.15624 22.3317 5.65101C21.8925 4.05892 20.5175 2.82943 18.7752 2.47111L18.336 2.38077Z" fill="#D2B589"/>
</svg>
