<svg width="25" height="25" viewBox="0 0 25 25" fill="none" xmlns="http://www.w3.org/2000/svg">
<path d="M4.63867 0C2.09073 0 0 2.09073 0 4.63867V20.3613C0 22.9093 2.09073 25 4.63867 25H20.3613C22.9093 25 25 22.9093 25 20.3613V4.63867C25 2.09073 22.9093 0 20.3613 0H4.63867ZM4.63867 2.27273H20.3613C21.6797 2.27273 22.7273 3.32031 22.7273 4.63867V20.3613C22.7273 21.6797 21.6797 22.7273 20.3613 22.7273H4.63867C3.32031 22.7273 2.27273 21.6797 2.27273 20.3613V4.63867C2.27273 3.32031 3.32031 2.27273 4.63867 2.27273ZM12.1804 8.21644C11.3459 8.20756 10.6357 8.21644 10.2362 8.41175C9.96982 8.54048 9.76562 8.83345 9.88991 8.84677C10.0453 8.86896 10.396 8.94442 10.5824 9.19744C10.8221 9.52148 10.8132 10.2539 10.8132 10.2539C10.8132 10.2539 10.9464 12.2692 10.4892 12.5222C10.174 12.6953 9.74343 12.3446 8.81126 10.7422C8.33629 9.91655 7.97674 9.00657 7.97674 9.00657C7.97674 9.00657 7.91016 8.83789 7.78587 8.74911C7.63494 8.63814 7.42631 8.60263 7.42631 8.60263L5.20241 8.61594C5.20241 8.61594 4.8695 8.62926 4.74965 8.77131C4.63867 8.90448 4.74077 9.16637 4.74077 9.16637C4.74077 9.16637 6.48082 13.2369 8.4517 15.2876C10.2583 17.1697 12.3091 17.0455 12.3091 17.0455H13.2413C13.2413 17.0455 13.521 17.0144 13.663 16.8635C13.7962 16.7214 13.7917 16.4551 13.7917 16.4551C13.7917 16.4551 13.774 15.2077 14.351 15.0213C14.9237 14.8438 15.6516 16.2287 16.4284 16.7614C17.0188 17.1653 17.4672 17.0765 17.4672 17.0765L19.5446 17.0455C19.5446 17.0455 20.6277 16.9789 20.1127 16.1222C20.0728 16.0556 19.8153 15.4918 18.5724 14.3377C17.2674 13.1303 17.4405 13.3256 19.0119 11.2349C19.9663 9.96094 20.348 9.18413 20.2282 8.84677C20.1127 8.53161 19.4114 8.61594 19.4114 8.61594L17.0721 8.62926C17.0721 8.62926 16.899 8.60707 16.7702 8.68253C16.646 8.75799 16.5661 8.93555 16.5661 8.93555C16.5661 8.93555 16.1932 9.92099 15.7005 10.7599C14.6618 12.5266 14.2401 12.6243 14.0714 12.5133C13.6763 12.2559 13.774 11.4835 13.774 10.9375C13.774 9.21964 14.0359 8.50941 13.2679 8.32298C13.0149 8.26083 12.8285 8.22088 12.1804 8.21644Z" fill="#D2B589"/>
</svg>
