<svg width="24" height="25" viewBox="0 0 24 25" fill="none" xmlns="http://www.w3.org/2000/svg">
<path d="M0.842619 25C0.619415 25 0.407337 24.907 0.251094 24.7443C0.0390505 24.5235 -0.0501754 24.198 0.027946 23.8959L1.43414 18.4217C0.496686 16.6085 0.00560326 14.563 0.00560326 12.4942C0.00560326 5.60205 5.38482 0 12.0028 0C18.6208 0 24 5.60205 24 12.4942C24 19.3863 18.6208 24.9884 12.0028 24.9884C9.98278 24.9884 8.0075 24.4654 6.24419 23.4658L1.06583 24.9651C0.987713 24.9884 0.92074 25 0.842619 25ZM6.35576 21.6643C6.50084 21.6643 6.64594 21.7109 6.77986 21.7807C8.35345 22.7453 10.1613 23.2566 12.0028 23.2566C17.6945 23.2566 22.326 18.4333 22.326 12.5058C22.326 6.57836 17.6945 1.75501 12.0028 1.75501C6.31112 1.75501 1.67963 6.57836 1.67963 12.5058C1.67963 14.4003 2.15951 16.2482 3.06349 17.8754C3.17509 18.073 3.20859 18.3171 3.15279 18.5379L2.03677 22.8847L6.14372 21.6992C6.21068 21.676 6.2888 21.6643 6.35576 21.6643Z" fill="#D2B589"/>
<path d="M15.0608 19.1999C14.3689 19.1999 13.6547 19.0372 12.9069 18.7001C12.2038 18.3863 11.5007 17.9679 10.82 17.4449C10.1504 16.9335 9.49198 16.3524 8.88933 15.7248C8.28668 15.0855 7.72862 14.4114 7.23757 13.7141C6.73536 12.9818 6.33359 12.2613 6.04342 11.5523C5.73094 10.7852 5.57471 10.0297 5.57471 9.30913C5.57471 8.79774 5.66397 8.3096 5.83137 7.85632C6.00993 7.3798 6.30011 6.94975 6.67956 6.57783C7.39381 5.84561 8.42059 5.57832 9.23529 5.9851C9.51429 6.11295 9.74866 6.32216 9.92727 6.6011L11.2217 8.49555C11.3557 8.68151 11.4562 8.87909 11.5343 9.07667C11.6236 9.30912 11.6794 9.54159 11.6794 9.76242C11.6794 10.0646 11.6012 10.3668 11.4449 10.6341C11.3445 10.8084 11.1994 11.0176 11.0097 11.2152L10.8646 11.3779C10.9316 11.4709 11.0097 11.5871 11.1325 11.7266C11.3668 12.0056 11.6235 12.3077 11.9025 12.5983C12.1815 12.8772 12.4605 13.1562 12.7395 13.4003C12.8734 13.5165 12.9852 13.6095 13.0744 13.6676L13.2306 13.5049C13.4315 13.2957 13.6325 13.1329 13.8333 13.0283C14.2016 12.7843 14.7707 12.7262 15.2729 12.947C15.4515 13.0167 15.63 13.1213 15.8197 13.2608L17.6836 14.6322C17.9403 14.8182 18.1411 15.0739 18.275 15.3645C18.3866 15.655 18.4313 15.9107 18.4313 16.178C18.4313 16.5267 18.3531 16.8638 18.208 17.1892C18.0629 17.4914 17.8955 17.7587 17.6947 18.0028C17.3375 18.4096 16.9247 18.7117 16.4783 18.9093C16.0319 19.1069 15.5519 19.1999 15.0608 19.1999ZM8.42055 7.55412C8.35359 7.55412 8.13044 7.55412 7.85143 7.84468C7.63939 8.05389 7.49427 8.27474 7.39383 8.51881C7.29339 8.76289 7.24874 9.04183 7.24874 9.32077C7.24874 9.80891 7.36033 10.3319 7.58353 10.8898C7.8179 11.4709 8.1639 12.0869 8.58799 12.7029C9.02323 13.3189 9.51428 13.9349 10.0612 14.5044C10.608 15.0623 11.1883 15.5853 11.7909 16.0502C12.3712 16.4918 12.9628 16.8405 13.5543 17.1078C14.4025 17.4914 15.1836 17.5844 15.8197 17.3054C16.0429 17.2124 16.2438 17.0497 16.4447 16.8405C16.5452 16.7243 16.6234 16.6081 16.6903 16.457C16.7238 16.3756 16.746 16.2826 16.746 16.2013C16.746 16.178 16.746 16.1432 16.7126 16.0734L14.8488 14.7252C14.7707 14.6671 14.6926 14.6206 14.6256 14.5974C14.581 14.6206 14.5141 14.6555 14.3913 14.7833L13.9673 15.225C13.6436 15.562 13.1302 15.655 12.7173 15.5039L12.5164 15.411C12.2597 15.2715 11.9695 15.0623 11.6458 14.7717C11.3333 14.4928 11.0321 14.2022 10.7085 13.8768C10.396 13.5397 10.117 13.2259 9.84914 12.9005C9.55892 12.5402 9.35804 12.2496 9.22412 12.0056L9.10138 11.7034C9.0679 11.5871 9.05669 11.4593 9.05669 11.3431C9.05669 11.0176 9.16834 10.7271 9.38038 10.4946L9.8045 10.0414C9.92727 9.9135 9.97191 9.84378 9.99423 9.79729C9.96075 9.71593 9.91611 9.64619 9.8603 9.56483L8.55447 7.64712L8.42055 7.55412Z" fill="#D2B589"/>
</svg>
